<svg width="34" height="32" viewBox="0 0 34 32" fill="none" xmlns="http://www.w3.org/2000/svg">
<path fill-rule="evenodd" clip-rule="evenodd" d="M31.5466 9.27079L17.9333 2.22945C17.3411 1.92364 16.6375 1.92364 16.0453 2.22945L2.43464 9.27079C2.16129 9.41126 1.98944 9.69279 1.98944 10.0001C1.98944 10.3075 2.16129 10.589 2.43464 10.7295L16.0466 17.7708C16.6388 18.0766 17.3425 18.0766 17.9346 17.7708L31.5466 10.7295C31.8192 10.5883 31.9903 10.307 31.9903 10.0001C31.9903 9.69322 31.8192 9.41192 31.5466 9.27079Z" stroke="#6DC1C1" stroke-width="2" stroke-linecap="round" stroke-linejoin="round"/>
<path d="M2.01062 17.0001L16.0466 23.7708C16.6388 24.0766 17.3424 24.0766 17.9346 23.7708L32.0106 17.0001" stroke="#87789A" stroke-width="2" stroke-linecap="round" stroke-linejoin="round"/>
<path d="M2.01062 23.0001L16.0466 29.7708C16.6388 30.0766 17.3424 30.0766 17.9346 29.7708L32.0106 23.0001" stroke="#87789A" stroke-width="2" stroke-linecap="round" stroke-linejoin="round"/>
</svg>
