<svg width="32" height="31" viewBox="0 0 32 31" fill="none" xmlns="http://www.w3.org/2000/svg">
<path fill-rule="evenodd" clip-rule="evenodd" d="M18.6415 10.3178C21.2842 12.1416 24.7188 16.5333 24.7188 20.4897C24.7188 24.5029 20.3775 27.7553 16 27.7553C11.6226 27.7553 7.28128 24.5029 7.28128 20.4897C7.28128 16.5333 10.7158 12.1416 13.3586 10.3178L11.35 5.52961C11.1865 5.24409 11.1516 4.90264 11.254 4.58995C11.3565 4.27726 11.5866 4.02262 11.8874 3.88919C14.5569 3.01281 17.4367 3.01281 20.1062 3.88919C20.4081 4.02137 20.6397 4.27548 20.7434 4.5883C20.8471 4.90113 20.8132 5.24326 20.65 5.52961L18.6415 10.3178Z" stroke="#87789A" stroke-width="1.9375" stroke-linecap="round" stroke-linejoin="round"/>
<path d="M13.3586 10.3178H18.6415" stroke="#87789A" stroke-width="1.9375" stroke-linecap="round" stroke-linejoin="round"/>
<path d="M6.31253 26.7865C2.43753 26.7865 1.46878 22.9115 1.46878 20.1809C1.58465 16.9311 3.32082 13.9554 6.09295 12.2553L4.46028 9.90057C4.2552 9.60444 4.23136 9.21897 4.39839 8.89982C4.56542 8.58068 4.89573 8.38056 5.25595 8.38028H8.25003" stroke="#87789A" stroke-width="1.9375" stroke-linecap="round" stroke-linejoin="round"/>
<path d="M13.8417 22.3871C14.4092 23.1331 15.3049 23.5554 16.2416 23.5186C17.7128 23.5186 18.9063 22.6235 18.9063 21.5191C18.9063 20.4147 17.7128 19.5222 16.2416 19.5222C14.7704 19.5222 13.5782 18.6271 13.5782 17.5227C13.5782 16.4183 14.7717 15.5245 16.2416 15.5245C17.1781 15.4865 18.0742 15.9085 18.6415 16.6547" stroke="#6DC1C1" stroke-width="1.9375" stroke-linecap="round" stroke-linejoin="round"/>
<path d="M16.2416 23.5186V24.8491" stroke="#6DC1C1" stroke-width="1.9375" stroke-linecap="round" stroke-linejoin="round"/>
<path d="M16.2416 14.1928V15.5245" stroke="#6DC1C1" stroke-width="1.9375" stroke-linecap="round" stroke-linejoin="round"/>
<path d="M25.6875 26.7865C29.5625 26.7865 30.5313 22.9115 30.5313 20.1809C30.4154 16.9311 28.6792 13.9554 25.9071 12.2553L27.5398 9.90057C27.7449 9.60444 27.7687 9.21897 27.6017 8.89982C27.4346 8.58068 27.1043 8.38056 26.7441 8.38028H23.75" stroke="#87789A" stroke-width="1.9375" stroke-linecap="round" stroke-linejoin="round"/>
</svg>
