<svg width="32" height="32" viewBox="0 0 32 32" fill="none" xmlns="http://www.w3.org/2000/svg">
<path d="M5.44924 6.98932H26.5506" stroke="#6DC1C1" stroke-width="1.875" stroke-linecap="round" stroke-linejoin="round"/>
<path fill-rule="evenodd" clip-rule="evenodd" d="M11.4146 0.989319H20.5853C20.8507 0.989927 21.1052 1.09535 21.2933 1.28265L26.2586 6.24799C26.4519 6.44161 26.5575 6.70589 26.551 6.9794C26.5445 7.25291 26.4263 7.51184 26.2239 7.69599L16.6733 16.3787C16.2914 16.7256 15.7085 16.7256 15.3266 16.3787L5.77594 7.69599C5.5736 7.51184 5.45542 7.25291 5.44887 6.9794C5.44233 6.70589 5.54798 6.44161 5.74127 6.24799L10.7066 1.28265C10.8947 1.09535 11.1492 0.989927 11.4146 0.989319Z" stroke="#6DC1C1" stroke-width="1.875" stroke-linecap="round" stroke-linejoin="round"/>
<path d="M11.0252 1.06932L15.8879 16.632" stroke="#6DC1C1" stroke-width="1.875" stroke-linecap="round" stroke-linejoin="round"/>
<path d="M20.9746 1.06932L16.1119 16.632" stroke="#6DC1C1" stroke-width="1.875" stroke-linecap="round" stroke-linejoin="round"/>
<path d="M4.99994 30.9893L2.31461 27.6333C1.46358 26.5695 0.999943 25.2477 0.999939 23.8853V16.9893C0.999939 15.8847 1.89537 14.9893 2.99994 14.9893V14.9893C4.10451 14.9893 4.99994 15.8847 4.99994 16.9893V21.9893" stroke="#87789A" stroke-width="1.875" stroke-linecap="round" stroke-linejoin="round"/>
<path d="M10.9999 30.808V26.808C11.0005 25.6215 10.6492 24.4616 9.99059 23.4747L8.46792 21.2C8.20516 20.7624 7.77467 20.4515 7.27666 20.3397C6.77865 20.2279 6.25656 20.3248 5.83192 20.608V20.608C5.04914 21.1299 4.77712 22.1529 5.19726 22.9947L6.99992 25.9947" stroke="#87789A" stroke-width="1.875" stroke-linecap="round" stroke-linejoin="round"/>
<path d="M26.9999 30.9893L29.6853 27.6333C30.5363 26.5695 30.9999 25.2477 30.9999 23.8853V16.9893C30.9999 15.8847 30.1045 14.9893 28.9999 14.9893V14.9893C27.8954 14.9893 26.9999 15.8847 26.9999 16.9893V21.9893" stroke="#87789A" stroke-width="1.875" stroke-linecap="round" stroke-linejoin="round"/>
<path d="M20.9999 30.808V26.808C20.9994 25.6215 21.3507 24.4616 22.0093 23.4747L23.5319 21.2C23.7947 20.7624 24.2252 20.4515 24.7232 20.3397C25.2212 20.2279 25.7433 20.3248 26.1679 20.608V20.608C26.9507 21.1299 27.2227 22.1529 26.8026 22.9947L24.9999 25.9947" stroke="#87789A" stroke-width="1.875" stroke-linecap="round" stroke-linejoin="round"/>
</svg>
