<svg width="73" height="73" viewBox="0 0 73 73" fill="none" xmlns="http://www.w3.org/2000/svg">
<circle r="28.5" transform="matrix(-1 0 0 1 36.5 36.5)" fill="#E7F5F5" stroke="#ECE9EF" stroke-opacity="0.3" stroke-width="15"/>
<path d="M43.5267 37.2654C42.7847 36.208 43.0364 34.7498 44.0898 34.0022C45.1432 33.2546 46.6027 33.4984 47.3559 34.5478C48.5974 36.3252 48.171 38.7715 46.4013 40.024C45.3929 40.7395 44.1417 41.0251 42.9228 40.8179C41.7038 40.6108 40.6171 39.928 39.9017 38.9196C37.8903 36.0839 38.5578 32.1547 41.3928 30.1423C42.0601 29.604 42.8364 29.2173 43.6681 29.0088C45.5518 28.6118 47.0896 27.2562 47.7196 25.437L48.9436 21.9062L50.7561 24.4595C52.5068 26.9274 51.9258 30.3472 49.4584 32.0985" stroke="#3DADAD" stroke-width="1.8125" stroke-linecap="round" stroke-linejoin="round"/>
<path d="M47.8779 38.0169L50.4444 36.1959C51.2909 35.5952 51.8641 34.6828 52.0379 33.6594C52.2117 32.6361 51.9719 31.5856 51.3712 30.7391L51.0667 30.3041" stroke="#3DADAD" stroke-width="1.8125" stroke-linecap="round" stroke-linejoin="round"/>
<path d="M44.7567 40.7647L36.1002 48.6189C35.7656 48.9249 35.3284 49.0943 34.875 49.0937H26.7187C25.7177 49.0937 24.9062 48.2823 24.9062 47.2812C24.9062 44.2782 27.3407 41.8437 30.3437 41.8437L33.9687 38.2187L27.6045 29.0354C27.0373 28.2156 27.2386 27.0916 28.0552 26.5197L34.1838 22.2337C34.9926 21.6676 36.1057 21.853 36.6875 22.6506L41.9305 29.7701" stroke="#87789A" stroke-width="1.8125" stroke-linecap="round" stroke-linejoin="round"/>
<path d="M29.4653 31.7252L33.0625 29.1562" stroke="#87789A" stroke-width="1.8125" stroke-linecap="round" stroke-linejoin="round"/>
<path d="M31.8699 35.1956L35.4671 32.6267" stroke="#87789A" stroke-width="1.8125" stroke-linecap="round" stroke-linejoin="round"/>
<path d="M25.2155 45.4686H33.9687L40.3125 39.4209" stroke="#87789A" stroke-width="1.8125" stroke-linecap="round" stroke-linejoin="round"/>
<circle cx="56.2098" cy="16" r="12" fill="#6DC1C1"/>
<path d="M60.4805 12.311L55.3549 17.4363L53.1677 15.2491C52.753 14.8345 52.0806 14.8345 51.666 15.2491C51.2512 15.6639 51.2512 16.3362 51.666 16.751L54.6041 19.6891C54.8114 19.8964 55.0832 20 55.3549 20C55.6267 20 55.8985 19.8964 56.1058 19.6891L61.9821 13.8129C62.397 13.3981 62.397 12.7257 61.9823 12.3111C61.5677 11.8964 60.8953 11.8962 60.4805 12.311Z" fill="#FFFBFA"/>
</svg>
