<svg width="73" height="73" viewBox="0 0 73 73" fill="none" xmlns="http://www.w3.org/2000/svg">
<circle r="28.5" transform="matrix(-1 0 0 1 36.5 36.5)" fill="#E7F5F5" stroke="#ECE9EF" stroke-opacity="0.3" stroke-width="15"/>
<path d="M25.8125 42.1562V28.0938C25.8125 27.0582 26.652 26.2188 27.6875 26.2188H48.3125C49.348 26.2188 50.1875 27.0582 50.1875 28.0938V42.1562" stroke="#87789A" stroke-width="1.875" stroke-linecap="round" stroke-linejoin="round"/>
<path fill-rule="evenodd" clip-rule="evenodd" d="M41.23 42.1562C40.5677 43.3154 39.335 44.0309 38 44.0309C36.665 44.0309 35.4323 43.3154 34.77 42.1562H23.9375V44.0312C23.9375 46.1023 25.6164 47.7812 27.6875 47.7812H48.3125C50.3836 47.7812 52.0625 46.1023 52.0625 44.0312V42.1562H41.23Z" stroke="#87789A" stroke-width="1.875" stroke-linecap="round" stroke-linejoin="round"/>
<path fill-rule="evenodd" clip-rule="evenodd" d="M36.655 31.0076C36.3393 30.8591 35.971 30.8746 35.6687 31.0488C35.3746 31.2154 35.1913 31.5258 35.1875 31.8638V36.5113C35.1915 36.8492 35.3748 37.1596 35.6687 37.3263C35.971 37.5006 36.3393 37.516 36.655 37.3676L41.0163 35.3088C41.4618 35.114 41.7497 34.6738 41.7497 34.1876C41.7497 33.7013 41.4618 33.2611 41.0163 33.0663L36.655 31.0076Z" stroke="#3DADAD" stroke-width="1.875" stroke-linecap="round" stroke-linejoin="round"/>
<circle cx="56.2098" cy="16" r="12" fill="#6DC1C1"/>
<path d="M60.4805 12.311L55.3549 17.4363L53.1677 15.2491C52.753 14.8345 52.0806 14.8345 51.666 15.2491C51.2512 15.6639 51.2512 16.3362 51.666 16.751L54.6041 19.6891C54.8114 19.8964 55.0832 20 55.3549 20C55.6267 20 55.8985 19.8964 56.1058 19.6891L61.9821 13.8129C62.397 13.3981 62.397 12.7257 61.9823 12.3111C61.5677 11.8964 60.8953 11.8962 60.4805 12.311Z" fill="#FFFBFA"/>
</svg>
