<svg width="48" height="48" viewBox="0 0 48 48" fill="none" xmlns="http://www.w3.org/2000/svg">
<circle cx="24" cy="24" r="24" fill="#CEEAEA"/>
<g clip-path="url(#clip0)">
<path d="M22.3724 12.8311V16.836C22.3724 17.3791 21.9321 17.8192 21.389 17.8192C19.4511 17.8192 18.397 19.8068 18.2509 23.7296H21.389C21.9321 23.7296 22.3724 24.1701 22.3724 24.713V33.169C22.3724 33.7119 21.9321 34.1521 21.389 34.1521H13.0222C12.4789 34.1521 12.039 33.7116 12.039 33.169V24.713C12.039 22.8325 12.2283 21.1068 12.6016 19.5833C12.9844 18.0212 13.572 16.6554 14.3476 15.5236C15.1457 14.3605 16.144 13.4478 17.315 12.812C18.4939 12.1723 19.8648 11.8479 21.3893 11.8479C21.9321 11.8479 22.3724 12.288 22.3724 12.8311ZM35.0555 17.8193C35.5984 17.8193 36.039 17.3788 36.039 16.836V12.8312C36.039 12.2881 35.5984 11.848 35.0555 11.848C33.5316 11.848 32.1605 12.1725 30.982 12.8121C29.8108 13.4479 28.8119 14.3606 28.0137 15.5237C27.2384 16.6554 26.6508 18.0213 26.2679 19.5838C25.8948 21.1078 25.7055 22.8335 25.7055 24.7131V33.1691C25.7055 33.712 26.1459 34.1521 26.6889 34.1521H35.0554C35.5983 34.1521 36.0385 33.7116 36.0385 33.1691V24.713C36.0385 24.1701 35.5984 23.7296 35.0554 23.7296H31.9621C32.106 19.8068 33.1447 17.8193 35.0555 17.8193Z" fill="#6DC1C1"/>
</g>
<defs>
<clipPath id="clip0">
<rect width="24" height="24" fill="white" transform="translate(12.0391 11)"/>
</clipPath>
</defs>
</svg>
