<svg width="30" height="30" viewBox="0 0 30 30" fill="none" xmlns="http://www.w3.org/2000/svg">
<path fill-rule="evenodd" clip-rule="evenodd" d="M11.8007 8.01835C11.8891 8.23744 12.0106 8.56605 12.1653 9.00422C12.32 9.44238 12.4747 9.83672 12.6294 10.1873C12.7841 10.5378 12.8614 10.735 12.8614 10.7788C12.9498 11.0417 12.9498 11.2607 12.8614 11.436C12.7288 11.6989 12.5962 11.8961 12.4636 12.0275L11.867 12.619C11.6018 12.8819 11.5355 13.1448 11.6681 13.4077C12.1101 14.2841 12.773 15.1385 13.657 15.971C14.4525 16.7159 15.4249 17.3731 16.574 17.9427C16.9276 18.118 17.1927 18.0961 17.3695 17.877C17.4579 17.7894 17.6679 17.5593 17.9994 17.1869C18.3308 16.8144 18.5408 16.5844 18.6292 16.4968C18.8502 16.2339 19.1374 16.1682 19.491 16.2996C19.6236 16.3434 20.0435 16.5625 20.7506 16.9568C21.4578 17.3512 21.8556 17.5703 21.944 17.6141C22.3859 17.8332 22.629 17.9865 22.6732 18.0742C22.8058 18.3371 22.6953 18.9067 22.3417 19.783C22.2091 20.1773 21.8556 20.5388 21.281 20.8674C20.7064 21.1961 20.2203 21.3823 19.8225 21.4261C19.7783 21.5575 19.4247 21.5795 18.7618 21.4918C18.0988 21.4042 16.9718 21.0317 15.3807 20.3745C14.8945 20.1554 14.3973 19.8925 13.889 19.5858C13.3807 19.2791 12.9388 18.9505 12.5631 18.6C12.1874 18.2494 11.8228 17.8989 11.4692 17.5484C11.1156 17.1978 10.8062 16.8473 10.5411 16.4968C10.2759 16.1462 10.0549 15.8395 9.87809 15.5766C9.7013 15.3137 9.54661 15.0728 9.41402 14.8537L9.21513 14.5908C8.24279 13.3201 7.77872 12.0494 7.82292 10.7788C7.86712 9.68336 8.35328 8.6756 9.28143 7.75546C9.59081 7.44874 9.92229 7.29539 10.2759 7.29539H10.9388C11.3366 7.29539 11.6239 7.53637 11.8007 8.01835ZM15.1155 2.10318C11.7565 2.10318 8.81738 3.30811 6.29812 5.71801C3.86726 8.12791 2.65184 10.9978 2.65184 14.3279C2.65184 16.6063 3.2485 18.7095 4.44184 20.6374L4.9722 21.4918L4.64072 22.412L3.3811 26.1582L7.42515 24.9095L8.287 24.6466L9.08255 25.0409C10.983 26.0487 12.994 26.5526 15.1155 26.5526C18.5187 26.5526 21.4578 25.3696 23.9328 23.0035C26.3637 20.5936 27.5791 17.7017 27.5791 14.3279C27.5791 10.9978 26.3637 8.12791 23.9328 5.71801C21.4136 3.30811 18.4745 2.10318 15.1155 2.10318ZM15.1155 0C19.1375 0 22.5738 1.39115 25.4245 4.17349C28.2753 6.95583 29.7006 10.3406 29.7006 14.3279C29.7006 18.3152 28.2753 21.6999 25.4245 24.4823C22.5738 27.2646 19.1375 28.6558 15.1155 28.6558C12.6846 28.6558 10.3422 28.0642 8.08811 26.8812L0 29.4444L2.65184 21.7547C1.23752 19.4324 0.530368 16.9569 0.530368 14.3279C0.530368 10.3406 1.95572 6.95583 4.80646 4.17349C7.6572 1.39115 11.0935 0 15.1155 0Z" fill="#DFE6F0"/>
</svg>
